<mxfile host="app.diagrams.net" modified="2023-07-30T08:41:22.565Z" agent="Mozilla/5.0 (Windows NT 10.0; Win64; x64) AppleWebKit/537.36 (KHTML, like Gecko) Chrome/115.0.0.0 Safari/537.36" version="21.6.6" etag="kxEslWjagnRPmZckDkTL" type="github">
  <diagram name="페이지-1" id="X4f42SbeneDqfz0731Sl">
    <mxGraphModel>
      <root>
        <mxCell id="0" />
        <mxCell id="1" parent="0" />
      </root>
    </mxGraphModel>
  </diagram>
</mxfile>
